:SAMPLES-PER-SECOND 30
:FULLY-SPECIFIED
:DEGREES
98
root  -4.10564 41.0416 -0.251297 162.865 -88.0409 -159.792
RightUpLeg  1.46187 -1.06906 -0.534841
RightLeg  -5.48649 -18.2372 3.04246
RightFoot  2.13584 -0.31427 2.78195
RightToes  -3.1126e-008 1.75238e-005 3.56266e-009
Spine  10.1305 -1.9622 -10.4764
Spine1  -20.0833 -2.40858 16.2728
HEad  -2.12197 7.34453 -2.4193
LeftShoulder1  -0.0129582 3.57008 -12.4781
LeftArm  -23.486 -43.05 -42.8849
LeftForeArm  59.494 -76.4241 -42.9199
LeftHand  -0.54918 -4.29635 6.86206
RightShoulder  0.104985 -2.99032 14.4039
RightArm  -2.75212 -29.069 26.7638
RightForeArm  110.769 78.2577 117.817
RightHand  -0.0174897 8.54866 -0.530842
LeftUpLeg  2.17863 1.72774 3.98291
LeftLeg  -4.92525 18.3282 -1.71522
LeftFoot  1.58479 0.407863 -3.68358
LeftToes  4.78049e-008 1.46235e-008 1.34219e-009
99
root  -4.20753 41.0318 -0.269679 157.089 -88.5989 -153.952
RightUpLeg  1.60094 -1.17366 -0.548947
RightLeg  -5.48274 -18.8019 3.16148
RightFoot  1.91473 -0.294278 2.64364
RightToes  -3.1126e-008 1.75238e-005 3.56266e-009
Spine  9.82783 -2.08702 -10.2819
Spine1  -19.8667 -2.52381 15.9443
HEad  -2.44471 7.01306 -2.16058
LeftShoulder1  -0.0208204 3.61154 -12.256
LeftArm  -23.396 -42.2981 -42.4899
LeftForeArm  59.8547 -76.6296 -43.9725
LeftHand  -0.569581 -4.07769 7.25477
RightShoulder  0.0559848 -3.21718 14.2056
RightArm  -2.70765 -28.9225 27.2494
RightForeArm  110.253 78.3954 116.745
RightHand  0.032214 8.5695 -0.119012
LeftUpLeg  1.89708 1.75087 4.00409
LeftLeg  -4.36442 17.7232 -1.52489
LeftFoot  1.3962 0.392754 -3.59501
LeftToes  4.78049e-008 1.46235e-008 1.34219e-009
100
root  -4.27231 41.0235 -0.296252 137.645 -89.1126 -134.607
RightUpLeg  1.7905 -1.29923 -0.546684
RightLeg  -5.33649 -19.4518 3.24666
RightFoot  1.64006 -0.260351 2.38566
RightToes  -3.1126e-008 1.75238e-005 3.56266e-009
Spine  9.51965 -2.06409 -9.94059
Spine1  -19.1947 -2.55332 15.2651
HEad  -3.03487 6.66208 -1.53368
LeftShoulder1  0.0384523 3.30766 -12.5242
LeftArm  -23.2774 -41.8054 -42.1172
LeftForeArm  60.0268 -76.6254 -43.8832
LeftHand  -0.586215 -4.35242 7.26827
RightShoulder  0.0957032 -3.034 14.4612
RightArm  -3.0101 -28.1275 27.2267
RightForeArm  108.878 78.4801 115.695
RightHand  0.00711591 8.4898 -0.326154
LeftUpLeg  1.86681 1.77145 4.00486
LeftLeg  -4.07055 17.0404 -1.41411
LeftFoot  1.38016 0.35833 -3.28962
LeftToes  4.78049e-008 1.46235e-008 1.34219e-009
101
root  -4.31694 41.0138 -0.339159 69.8797 -89.301 -66.8796
RightUpLeg  2.05334 -1.3159 -0.449571
RightLeg  -5.49817 -20.6573 3.45321
RightFoot  1.4247 -0.214244 2.00092
RightToes  -3.1126e-008 1.75238e-005 3.56266e-009
Spine  9.43819 -2.02856 -9.71556
Spine1  -18.7801 -2.5531 14.626
HEad  -3.33273 6.03518 -1.50188
LeftShoulder1  0.0633166 3.18343 -12.6655
LeftArm  -22.6398 -41.2824 -42.6025
LeftForeArm  59.5911 -76.4454 -43.0257
LeftHand  -0.625291 -5.11972 7.20539
RightShoulder  0.131099 -2.87406 14.6655
RightArm  -3.09074 -27.0062 26.9812
RightForeArm  106.921 78.5556 114.468
RightHand  -0.019999 8.23009 -0.549555
LeftUpLeg  1.58857 1.81437 4.07919
LeftLeg  -3.5902 15.9467 -1.22338
LeftFoot  1.2816 0.342078 -3.1635
LeftToes  4.78049e-008 1.46235e-008 1.34219e-009
102
root  -4.33404 41.0036 -0.392407 11.8989 -88.0524 -9.00816
RightUpLeg  2.23319 -1.47842 -0.473147
RightLeg  -5.26552 -22.0505 3.52521
RightFoot  1.05502 -0.196198 1.87295
RightToes  -3.1126e-008 1.75238e-005 3.56266e-009
Spine  9.29031 -2.03004 -9.68063
Spine1  -18.0252 -2.63254 14.232
HEad  -4.0615 5.15519 -1.36925
LeftShoulder1  0.0794062 3.10813 -13.018
LeftArm  -22.2543 -40.9106 -43.3711
LeftForeArm  58.1611 -76.036 -41.3428
LeftHand  -0.580928 -4.71863 6.96342
RightShoulder  0.268096 -2.25302 14.9188
RightArm  -3.08434 -26.2143 26.2096
RightForeArm  106.966 78.5704 114.373
RightHand  -0.0574209 8.24538 -0.867774
LeftUpLeg  1.28386 1.69604 4.03522
LeftLeg  -3.17077 14.5126 -0.982562
LeftFoot  1.23769 0.343853 -3.18824
LeftToes  4.78049e-008 1.46235e-008 1.34219e-009
